<svg width="207" height="320" viewBox="0 0 207 320" fill="none" xmlns="http://www.w3.org/2000/svg">
<path d="M17.8857 251.298L16.5967 254.306C14.5378 259.14 13.0249 262.685 12.0581 264.94H23.3643C22.4512 262.488 21.5381 260.133 20.625 257.877C19.7119 255.604 18.7988 253.41 17.8857 251.298ZM24.8145 268.62H10.2856C8.85335 271.735 7.85075 274.179 7.27783 275.951C6.72282 277.724 6.44531 279.245 6.44531 280.517L6.41846 280.946C6.00667 281 5.70231 281.027 5.50537 281.027C5.32633 281.045 5.15625 281.054 4.99512 281.054C3.83138 281.054 2.94515 280.821 2.33643 280.355C1.7277 279.872 1.42334 279.174 1.42334 278.261C1.42334 277.348 3.15999 273.4 6.6333 266.417C10.1066 259.435 13.1413 252.945 15.7373 246.947C15.4508 246.535 15.1375 246.142 14.7974 245.766C14.4751 245.372 14.126 244.978 13.75 244.584C14.4124 243.76 15.0122 243.161 15.5493 242.785C16.1043 242.409 16.6593 242.221 17.2144 242.221C17.9842 242.221 18.7272 242.722 19.4434 243.725C20.1774 244.709 21.0278 246.392 21.9946 248.773C22.8361 250.832 23.9909 253.706 25.459 257.394C30.4362 269.909 33.9006 277.097 35.8521 278.959C35.1717 279.711 34.5451 280.248 33.9722 280.57C33.3993 280.893 32.7995 281.054 32.1729 281.054C30.3646 281.054 28.3146 277.974 26.0229 271.815C25.5037 270.455 25.1009 269.389 24.8145 268.62ZM72.7783 281.322C69.502 278.1 64.9723 273.122 59.1895 266.391C53.4066 259.641 49.0828 254.762 46.2183 251.754C46.2362 258.486 46.3615 265.594 46.5942 273.078C46.6659 275.065 46.7017 276.273 46.7017 276.703C46.7017 278.476 46.5137 279.639 46.1377 280.194C45.7617 280.731 45.0635 281 44.043 281C43.3805 281 42.6912 280.884 41.9751 280.651C41.259 280.418 40.5428 280.078 39.8267 279.63C40.7935 277.983 41.4738 275.62 41.8677 272.541C42.2616 269.443 42.4585 263.992 42.4585 256.186C42.4585 252.515 42.2257 249.91 41.7603 248.371C41.3127 246.831 40.516 245.757 39.3701 245.148C40.1579 244.217 40.8561 243.555 41.4648 243.161C42.0736 242.749 42.6823 242.543 43.291 242.543C43.8639 242.543 44.4279 242.731 44.9829 243.107C45.5379 243.465 46.2183 244.11 47.0239 245.041C47.1672 245.202 47.4984 245.596 48.0176 246.222C54.8747 254.386 62.5732 263.222 71.1133 272.729C71.167 270.061 71.2028 267.707 71.2207 265.666C71.2565 263.625 71.2744 261.879 71.2744 260.429C71.2744 255.666 71.0864 252.041 70.7104 249.552C70.3345 247.046 69.7168 245.041 68.8574 243.537C69.6631 243.107 70.3882 242.794 71.0327 242.597C71.6951 242.382 72.3128 242.274 72.8857 242.274C73.9062 242.274 74.6045 242.579 74.9805 243.188C75.3743 243.778 75.5713 245.067 75.5713 247.055C75.5713 248.236 75.4639 251.146 75.249 255.783C75.0521 260.402 74.9536 264.448 74.9536 267.921C74.9536 270.177 75.0073 272.29 75.1147 274.259C75.2222 276.229 75.3743 278.073 75.5713 279.792L72.7783 281.322ZM100.735 279.63C99.8755 280.114 99.0609 280.472 98.291 280.705C97.5212 280.937 96.7961 281.054 96.1157 281.054C95.2026 281.054 94.5581 280.803 94.1821 280.302C93.8241 279.783 93.645 278.825 93.645 277.428C93.645 276.515 93.7345 273.74 93.9136 269.103C94.1105 264.448 94.209 260.259 94.209 256.535C94.209 255.586 94.1821 253.581 94.1284 250.519C94.1105 249.033 94.1016 247.86 94.1016 247.001H92.0605C89.4287 247.001 87.2982 247.117 85.6689 247.35C84.0576 247.583 82.8133 247.95 81.936 248.451C81.5243 247.663 81.2199 246.992 81.0229 246.437C80.826 245.864 80.7275 245.363 80.7275 244.933C80.7275 244.127 81.005 243.563 81.5601 243.241C82.1151 242.901 83.0819 242.731 84.4604 242.731C85.1766 242.731 87.2266 242.812 90.6104 242.973C93.9941 243.134 97.0288 243.214 99.7144 243.214C102.955 243.214 105.533 243.089 107.449 242.838C109.382 242.588 110.85 242.185 111.853 241.63C112.211 242.203 112.471 242.731 112.632 243.214C112.811 243.68 112.9 244.118 112.9 244.53C112.9 245.497 112.542 246.213 111.826 246.679C111.11 247.126 110 247.35 108.496 247.35C107.941 247.35 106.598 247.305 104.468 247.216C102.337 247.126 100.636 247.064 99.3652 247.028C99.2399 250.161 99.1414 253.115 99.0698 255.89C99.0161 258.647 98.9893 261.19 98.9893 263.517C98.9893 267.975 99.1235 271.475 99.3921 274.018C99.6785 276.56 100.126 278.431 100.735 279.63ZM125.925 279.63C125.084 280.078 124.278 280.418 123.508 280.651C122.738 280.884 122.004 281 121.306 281C120.357 281 119.704 280.74 119.346 280.221C119.006 279.684 118.835 278.664 118.835 277.16C118.835 276.39 118.916 273.964 119.077 269.882C119.238 265.782 119.319 262.049 119.319 258.683C119.319 254.368 119.185 251.047 118.916 248.72C118.665 246.374 118.254 244.682 117.681 243.644C118.594 243.161 119.417 242.803 120.151 242.57C120.903 242.337 121.602 242.221 122.246 242.221C123.177 242.221 123.831 242.489 124.207 243.026C124.583 243.563 124.771 244.521 124.771 245.9C124.771 246.115 124.672 248.344 124.475 252.587C124.296 256.812 124.207 260.948 124.207 264.994C124.207 269.076 124.341 272.254 124.609 274.528C124.878 276.802 125.317 278.502 125.925 279.63Z" fill="white"/>
<path d="M131.86 269.774C131.842 269.577 131.825 269.372 131.807 269.157C131.807 268.924 131.807 268.638 131.807 268.297C131.807 267.098 132.102 266.221 132.693 265.666C133.284 265.111 134.233 264.833 135.54 264.833C136.148 264.833 137.169 264.905 138.601 265.048C140.033 265.191 141.161 265.263 141.985 265.263C142.45 265.263 142.898 265.227 143.328 265.155C143.775 265.066 144.187 264.94 144.563 264.779C144.581 265.048 144.599 265.352 144.617 265.692C144.653 266.033 144.67 266.221 144.67 266.256C144.67 267.456 144.366 268.333 143.757 268.888C143.167 269.443 142.227 269.721 140.938 269.721C140.221 269.721 139.183 269.64 137.822 269.479C136.479 269.318 135.477 269.237 134.814 269.237C134.259 269.237 133.74 269.282 133.257 269.372C132.773 269.461 132.308 269.595 131.86 269.774ZM163.12 251.298L161.831 254.306C159.772 259.14 158.259 262.685 157.292 264.94H168.599C167.686 262.488 166.772 260.133 165.859 257.877C164.946 255.604 164.033 253.41 163.12 251.298ZM170.049 268.62H155.52C154.088 271.735 153.085 274.179 152.512 275.951C151.957 277.724 151.68 279.245 151.68 280.517L151.653 280.946C151.241 281 150.937 281.027 150.74 281.027C150.561 281.045 150.391 281.054 150.229 281.054C149.066 281.054 148.18 280.821 147.571 280.355C146.962 279.872 146.658 279.174 146.658 278.261C146.658 277.348 148.394 273.4 151.868 266.417C155.341 259.435 158.376 252.945 160.972 246.947C160.685 246.535 160.372 246.142 160.032 245.766C159.709 245.372 159.36 244.978 158.984 244.584C159.647 243.76 160.247 243.161 160.784 242.785C161.339 242.409 161.894 242.221 162.449 242.221C163.219 242.221 163.962 242.722 164.678 243.725C165.412 244.709 166.262 246.392 167.229 248.773C168.07 250.832 169.225 253.706 170.693 257.394C175.671 269.909 179.135 277.097 181.086 278.959C180.406 279.711 179.779 280.248 179.207 280.57C178.634 280.893 178.034 281.054 177.407 281.054C175.599 281.054 173.549 277.974 171.257 271.815C170.738 270.455 170.335 269.389 170.049 268.62ZM194.192 279.63C193.35 280.078 192.545 280.418 191.775 280.651C191.005 280.884 190.271 281 189.573 281C188.624 281 187.97 280.74 187.612 280.221C187.272 279.684 187.102 278.664 187.102 277.16C187.102 276.39 187.183 273.964 187.344 269.882C187.505 265.782 187.585 262.049 187.585 258.683C187.585 254.368 187.451 251.047 187.183 248.72C186.932 246.374 186.52 244.682 185.947 243.644C186.86 243.161 187.684 242.803 188.418 242.57C189.17 242.337 189.868 242.221 190.513 242.221C191.444 242.221 192.097 242.489 192.473 243.026C192.849 243.563 193.037 244.521 193.037 245.9C193.037 246.115 192.939 248.344 192.742 252.587C192.563 256.812 192.473 260.948 192.473 264.994C192.473 269.076 192.607 272.254 192.876 274.528C193.145 276.802 193.583 278.502 194.192 279.63Z" fill="white"/>
<path d="M27.6596 298.124C27.6043 299.8 27.5648 301.306 27.541 302.642C27.5173 303.97 27.5055 305.128 27.5055 306.116C27.5055 306.985 27.5134 307.835 27.5292 308.665C27.5529 309.487 27.5885 310.289 27.6359 311.072C28.0074 311.166 28.3789 311.238 28.7504 311.285C29.1298 311.332 29.5092 311.356 29.8886 311.356C32.0939 311.356 33.8724 310.74 35.2241 309.507C36.5836 308.273 37.2634 306.657 37.2634 304.657C37.2634 302.673 36.5915 301.061 35.2478 299.82C33.904 298.579 32.1572 297.958 30.0072 297.958C29.5725 297.958 29.1614 297.974 28.7741 298.006C28.3868 298.029 28.0153 298.069 27.6596 298.124ZM24.6955 296.204C25.7784 296.188 26.8613 296.16 27.9442 296.121C29.035 296.081 29.5922 296.061 29.6159 296.061C32.7065 296.061 35.1648 296.796 36.9907 298.267C38.8245 299.737 39.7414 301.697 39.7414 304.147C39.7414 305.459 39.4687 306.7 38.9233 307.87C38.3858 309.032 37.6072 310.048 36.5876 310.917C35.6469 311.724 34.5443 312.332 33.2796 312.743C32.0228 313.146 30.6158 313.348 29.0587 313.348C27.4699 313.348 26.4226 313.222 25.9167 312.969C25.4187 312.716 25.1697 312.23 25.1697 311.51C25.1697 311.455 25.2053 310.518 25.2764 308.7C25.3555 306.882 25.395 305.088 25.395 303.317C25.395 301.397 25.3357 299.879 25.2172 298.765C25.1065 297.642 24.9326 296.788 24.6955 296.204ZM43.7015 306.092C44.2232 306.179 44.7962 306.246 45.4207 306.293C46.053 306.333 46.7328 306.353 47.46 306.353C48.448 306.353 49.108 306.262 49.44 306.08C49.772 305.898 49.938 305.57 49.938 305.096C49.938 304.377 49.689 303.807 49.191 303.389C48.6931 302.97 48.0133 302.76 47.1517 302.76C46.2348 302.76 45.472 303.053 44.8634 303.638C44.2548 304.222 43.8675 305.041 43.7015 306.092ZM50.602 310.751C50.7758 310.965 50.9023 311.166 50.9814 311.356C51.0683 311.538 51.1118 311.716 51.1118 311.89C51.1118 312.317 50.7917 312.668 50.1514 312.945C49.5191 313.214 48.6891 313.348 47.6615 313.348C45.7724 313.348 44.2903 312.834 43.2153 311.807C42.1483 310.771 41.6147 309.344 41.6147 307.526C41.6147 305.693 42.1522 304.195 43.2272 303.033C44.3101 301.863 45.6973 301.278 47.3888 301.278C48.6931 301.278 49.7641 301.65 50.602 302.393C51.4398 303.136 51.8587 304.084 51.8587 305.238C51.8587 306.147 51.511 306.795 50.8154 307.183C50.1198 307.57 48.9381 307.764 47.2703 307.764C46.6458 307.764 46.0214 307.744 45.3969 307.704C44.7804 307.657 44.1678 307.59 43.5592 307.503V307.669C43.5592 308.902 43.9228 309.878 44.65 310.597C45.3772 311.317 46.3652 311.676 47.6141 311.676C48.199 311.676 48.7405 311.601 49.2385 311.451C49.7364 311.293 50.1909 311.06 50.602 310.751ZM55.0956 303.744C54.9612 303.744 54.7754 303.752 54.5383 303.768C54.3012 303.776 54.1471 303.78 54.0759 303.78C53.7518 303.78 53.5226 303.736 53.3882 303.649C53.2618 303.555 53.1985 303.396 53.1985 303.175C53.1985 303.072 53.2143 302.954 53.246 302.819C53.2855 302.677 53.3448 302.519 53.4238 302.345C53.487 302.345 53.5937 302.349 53.7439 302.357C53.8941 302.365 54.0127 302.369 54.0996 302.369C54.3051 302.369 54.6332 302.357 55.0837 302.333C55.139 302.333 55.1825 302.329 55.2141 302.321C55.2141 302.235 55.2181 302.104 55.226 301.93C55.2339 301.756 55.2378 301.63 55.2378 301.551C55.2378 300.934 55.1983 300.393 55.1193 299.926C55.0402 299.452 54.9177 299.037 54.7517 298.682C55.0916 298.516 55.3959 298.389 55.6647 298.302C55.9334 298.215 56.1627 298.172 56.3524 298.172C56.6764 298.172 56.9096 298.274 57.0519 298.48C57.2021 298.678 57.2772 299.006 57.2772 299.464C57.2772 299.662 57.2416 300.282 57.1705 301.326C57.1467 301.713 57.127 302.021 57.1112 302.25C57.5696 302.187 57.9807 302.14 58.3443 302.108C58.7158 302.076 59.0477 302.061 59.3402 302.061C59.601 302.061 59.7868 302.108 59.8975 302.203C60.016 302.298 60.0753 302.452 60.0753 302.665C60.0753 302.784 60.0397 302.934 59.9686 303.116C59.8975 303.29 59.7947 303.487 59.6603 303.709C59.4548 303.661 59.2374 303.626 59.0082 303.602C58.779 303.578 58.5023 303.566 58.1783 303.566C58.1229 303.566 57.9569 303.574 57.6803 303.59C57.4036 303.598 57.1665 303.606 56.9689 303.614C56.8978 304.847 56.8464 305.863 56.8148 306.661C56.7831 307.459 56.7673 308.111 56.7673 308.617C56.7673 309.716 56.8622 310.487 57.0519 310.929C57.2495 311.364 57.5775 311.581 58.036 311.581C58.1625 311.581 58.2929 311.558 58.4273 311.51C58.5695 311.463 58.7118 311.388 58.8541 311.285C58.9252 311.443 58.9766 311.581 59.0082 311.7C59.0398 311.819 59.0556 311.925 59.0556 312.02C59.0556 312.407 58.8936 312.728 58.5695 312.98C58.2534 313.226 57.8384 313.348 57.3246 313.348C56.4709 313.348 55.8346 313.067 55.4157 312.506C55.0047 311.937 54.7992 311.068 54.7992 309.898C54.7992 309.566 54.8387 308.688 54.9177 307.266C54.9968 305.835 55.056 304.661 55.0956 303.744ZM63.6678 306.092C64.1895 306.179 64.7626 306.246 65.387 306.293C66.0194 306.333 66.6991 306.353 67.4263 306.353C68.4144 306.353 69.0744 306.262 69.4064 306.08C69.7384 305.898 69.9043 305.57 69.9043 305.096C69.9043 304.377 69.6554 303.807 69.1574 303.389C68.6594 302.97 67.9796 302.76 67.1181 302.76C66.2012 302.76 65.4384 303.053 64.8298 303.638C64.2211 304.222 63.8338 305.041 63.6678 306.092ZM70.5683 310.751C70.7422 310.965 70.8687 311.166 70.9477 311.356C71.0347 311.538 71.0781 311.716 71.0781 311.89C71.0781 312.317 70.758 312.668 70.1178 312.945C69.4854 313.214 68.6555 313.348 67.6279 313.348C65.7388 313.348 64.2567 312.834 63.1817 311.807C62.1146 310.771 61.5811 309.344 61.5811 307.526C61.5811 305.693 62.1186 304.195 63.1936 303.033C64.2765 301.863 65.6637 301.278 67.3552 301.278C68.6594 301.278 69.7305 301.65 70.5683 302.393C71.4062 303.136 71.8251 304.084 71.8251 305.238C71.8251 306.147 71.4773 306.795 70.7817 307.183C70.0861 307.57 68.9045 307.764 67.2366 307.764C66.6122 307.764 65.9877 307.744 65.3633 307.704C64.7468 307.657 64.1342 307.59 63.5255 307.503V307.669C63.5255 308.902 63.8891 309.878 64.6163 310.597C65.3435 311.317 66.3316 311.676 67.5805 311.676C68.1654 311.676 68.7068 311.601 69.2048 311.451C69.7028 311.293 70.1573 311.06 70.5683 310.751ZM81.6423 303.685C81.334 303.495 81.0337 303.361 80.7412 303.282C80.4487 303.195 80.1247 303.151 79.769 303.151C78.5675 303.151 77.5676 303.582 76.7693 304.444C75.9709 305.305 75.5718 306.396 75.5718 307.716C75.5718 308.91 75.9235 309.858 76.627 310.562C77.3384 311.257 78.2988 311.605 79.5081 311.605C80.0298 311.605 80.5041 311.534 80.9309 311.392C81.3577 311.249 81.7569 311.028 82.1284 310.728C82.2707 310.925 82.3774 311.115 82.4485 311.297C82.5276 311.479 82.5671 311.653 82.5671 311.819C82.5671 312.317 82.2786 312.712 81.7016 313.004C81.1246 313.297 80.342 313.443 79.354 313.443C77.6229 313.443 76.216 312.949 75.1331 311.961C74.0502 310.965 73.5087 309.673 73.5087 308.084C73.5087 306.155 74.1648 304.535 75.4769 303.223C76.789 301.91 78.3818 301.254 80.2551 301.254C80.9428 301.254 81.4526 301.353 81.7846 301.551C82.1245 301.748 82.2944 302.049 82.2944 302.452C82.2944 302.657 82.243 302.859 82.1403 303.057C82.0375 303.246 81.8715 303.456 81.6423 303.685ZM85.3534 303.744C85.219 303.744 85.0333 303.752 84.7961 303.768C84.559 303.776 84.4049 303.78 84.3337 303.78C84.0096 303.78 83.7804 303.736 83.646 303.649C83.5196 303.555 83.4563 303.396 83.4563 303.175C83.4563 303.072 83.4722 302.954 83.5038 302.819C83.5433 302.677 83.6026 302.519 83.6816 302.345C83.7449 302.345 83.8516 302.349 84.0017 302.357C84.1519 302.365 84.2705 302.369 84.3574 302.369C84.5629 302.369 84.891 302.357 85.3415 302.333C85.3969 302.333 85.4403 302.329 85.4719 302.321C85.4719 302.235 85.4759 302.104 85.4838 301.93C85.4917 301.756 85.4957 301.63 85.4957 301.551C85.4957 300.934 85.4561 300.393 85.3771 299.926C85.2981 299.452 85.1755 299.037 85.0095 298.682C85.3494 298.516 85.6537 298.389 85.9225 298.302C86.1912 298.215 86.4205 298.172 86.6102 298.172C86.9343 298.172 87.1674 298.274 87.3097 298.48C87.4599 298.678 87.535 299.006 87.535 299.464C87.535 299.662 87.4994 300.282 87.4283 301.326C87.4046 301.713 87.3848 302.021 87.369 302.25C87.8274 302.187 88.2385 302.14 88.6021 302.108C88.9736 302.076 89.3056 302.061 89.598 302.061C89.8589 302.061 90.0446 302.108 90.1553 302.203C90.2738 302.298 90.3331 302.452 90.3331 302.665C90.3331 302.784 90.2975 302.934 90.2264 303.116C90.1553 303.29 90.0525 303.487 89.9181 303.709C89.7126 303.661 89.4953 303.626 89.266 303.602C89.0368 303.578 88.7602 303.566 88.4361 303.566C88.3807 303.566 88.2148 303.574 87.9381 303.59C87.6615 303.598 87.4243 303.606 87.2267 303.614C87.1556 304.847 87.1042 305.863 87.0726 306.661C87.041 307.459 87.0252 308.111 87.0252 308.617C87.0252 309.716 87.12 310.487 87.3097 310.929C87.5073 311.364 87.8353 311.581 88.2938 311.581C88.4203 311.581 88.5507 311.558 88.6851 311.51C88.8273 311.463 88.9696 311.388 89.1119 311.285C89.183 311.443 89.2344 311.581 89.266 311.7C89.2976 311.819 89.3135 311.925 89.3135 312.02C89.3135 312.407 89.1514 312.728 88.8273 312.98C88.5112 313.226 88.0962 313.348 87.5824 313.348C86.7287 313.348 86.0924 313.067 85.6735 312.506C85.2625 311.937 85.057 311.068 85.057 309.898C85.057 309.566 85.0965 308.688 85.1755 307.266C85.2546 305.835 85.3139 304.661 85.3534 303.744ZM108.806 303.128C108.877 303.27 108.932 303.416 108.972 303.566C109.011 303.709 109.031 303.847 109.031 303.981C109.031 304.471 108.889 304.815 108.604 305.013C108.327 305.211 107.814 305.309 107.063 305.309C106.992 305.309 106.826 305.309 106.565 305.309C105.632 305.294 104.77 305.286 103.98 305.286C103.846 305.286 103.62 305.29 103.304 305.297C102.988 305.305 102.743 305.309 102.569 305.309C102.569 307.443 102.628 309.076 102.747 310.206C102.873 311.328 103.071 312.143 103.34 312.648C102.96 312.846 102.605 312.996 102.273 313.099C101.949 313.202 101.652 313.253 101.383 313.253C100.957 313.253 100.66 313.146 100.494 312.933C100.336 312.712 100.257 312.293 100.257 311.676C100.257 311.423 100.3 310.032 100.387 307.503C100.482 304.973 100.53 302.567 100.53 300.282C100.53 299.405 100.494 298.638 100.423 297.982C100.36 297.318 100.257 296.721 100.115 296.192C100.518 296.207 100.893 296.223 101.241 296.239C101.597 296.247 101.917 296.251 102.201 296.251C103.118 296.251 104.225 296.207 105.521 296.121C106.818 296.034 107.663 295.99 108.059 295.99C108.667 295.99 109.094 296.061 109.339 296.204C109.584 296.346 109.707 296.591 109.707 296.939C109.707 297.176 109.663 297.429 109.576 297.697C109.497 297.966 109.371 298.263 109.197 298.587C108.857 298.389 108.371 298.243 107.738 298.148C107.106 298.053 106.328 298.006 105.403 298.006C105.071 298.006 104.676 298.014 104.217 298.029C103.759 298.037 103.245 298.053 102.676 298.077L102.664 299.749C102.664 300.017 102.656 300.654 102.64 301.658C102.632 302.401 102.624 303.001 102.616 303.46C102.735 303.476 102.858 303.487 102.984 303.495C103.11 303.495 103.28 303.495 103.494 303.495C105.122 303.495 106.3 303.468 107.027 303.412C107.754 303.357 108.347 303.262 108.806 303.128ZM120.176 312.625C119.868 312.822 119.587 312.973 119.334 313.075C119.081 313.178 118.86 313.229 118.67 313.229C118.33 313.229 118.081 313.127 117.923 312.921C117.773 312.708 117.686 312.368 117.662 311.902C117.07 312.407 116.481 312.783 115.896 313.028C115.319 313.273 114.73 313.395 114.129 313.395C112.943 313.395 111.987 313.063 111.26 312.4C110.533 311.736 110.169 310.862 110.169 309.779C110.169 308.554 110.667 307.574 111.663 306.839C112.667 306.096 114.015 305.724 115.706 305.724C115.983 305.724 116.275 305.736 116.583 305.76C116.9 305.776 117.236 305.803 117.591 305.843C117.607 305.772 117.615 305.701 117.615 305.629C117.623 305.55 117.627 305.459 117.627 305.357C117.627 304.535 117.394 303.91 116.927 303.483C116.469 303.049 115.801 302.831 114.924 302.831C114.196 302.831 113.596 302.954 113.121 303.199C112.655 303.436 112.276 303.807 111.983 304.313C111.699 304.242 111.481 304.12 111.331 303.946C111.189 303.772 111.118 303.547 111.118 303.27C111.118 302.693 111.481 302.219 112.208 301.847C112.943 301.468 113.9 301.278 115.078 301.278C116.524 301.278 117.607 301.63 118.326 302.333C119.054 303.029 119.417 304.072 119.417 305.463C119.417 305.724 119.405 306.179 119.382 306.827C119.358 307.475 119.346 307.997 119.346 308.392C119.346 309.483 119.409 310.36 119.536 311.024C119.67 311.688 119.883 312.222 120.176 312.625ZM117.568 307.349C117.204 307.293 116.876 307.254 116.583 307.23C116.299 307.198 116.054 307.183 115.848 307.183C114.623 307.183 113.698 307.388 113.074 307.799C112.449 308.202 112.137 308.807 112.137 309.613C112.137 310.261 112.355 310.771 112.789 311.143C113.224 311.514 113.825 311.7 114.592 311.7C115.169 311.7 115.706 311.593 116.204 311.38C116.71 311.159 117.172 310.83 117.591 310.396C117.575 310.001 117.564 309.68 117.556 309.435C117.556 309.182 117.556 308.941 117.556 308.712C117.556 308.57 117.56 308.349 117.568 308.048C117.575 307.74 117.575 307.507 117.568 307.349ZM125.594 312.743C125.262 312.917 124.958 313.048 124.681 313.135C124.405 313.214 124.132 313.253 123.863 313.253C123.523 313.253 123.278 313.143 123.128 312.921C122.986 312.692 122.915 312.293 122.915 311.724C122.915 311.534 122.966 310.36 123.069 308.202C123.18 306.044 123.235 303.981 123.235 302.013C123.235 300.069 123.191 298.733 123.105 298.006C123.018 297.279 122.867 296.721 122.654 296.334C122.994 296.16 123.302 296.034 123.579 295.955C123.863 295.868 124.12 295.824 124.349 295.824C124.721 295.824 124.974 295.931 125.108 296.144C125.251 296.35 125.322 296.761 125.322 297.377C125.322 297.52 125.302 297.919 125.262 298.575C125.089 301.412 125.002 304.159 125.002 306.815C126.669 305.463 127.95 304.345 128.843 303.46C129.736 302.574 130.325 301.847 130.61 301.278C131.155 301.476 131.538 301.669 131.76 301.859C131.981 302.049 132.092 302.27 132.092 302.523C132.092 302.863 131.088 303.815 129.08 305.38C128.187 306.076 127.476 306.637 126.946 307.064C127.096 307.206 127.314 307.408 127.598 307.669C130.697 310.601 132.511 312.068 133.04 312.068H133.088C133.017 312.542 132.878 312.905 132.673 313.158C132.467 313.403 132.202 313.526 131.878 313.526C131.349 313.526 130.218 312.645 128.487 310.882C127.104 309.475 125.934 308.341 124.978 307.479V308.013C124.978 309.293 125.025 310.305 125.12 311.048C125.223 311.791 125.381 312.356 125.594 312.743ZM135.684 306.092C136.206 306.179 136.779 306.246 137.403 306.293C138.036 306.333 138.716 306.353 139.443 306.353C140.431 306.353 141.091 306.262 141.423 306.08C141.755 305.898 141.921 305.57 141.921 305.096C141.921 304.377 141.672 303.807 141.174 303.389C140.676 302.97 139.996 302.76 139.135 302.76C138.218 302.76 137.455 303.053 136.846 303.638C136.238 304.222 135.85 305.041 135.684 306.092ZM142.585 310.751C142.759 310.965 142.885 311.166 142.964 311.356C143.051 311.538 143.095 311.716 143.095 311.89C143.095 312.317 142.774 312.668 142.134 312.945C141.502 313.214 140.672 313.348 139.644 313.348C137.755 313.348 136.273 312.834 135.198 311.807C134.131 310.771 133.598 309.344 133.598 307.526C133.598 305.693 134.135 304.195 135.21 303.033C136.293 301.863 137.68 301.278 139.372 301.278C140.676 301.278 141.747 301.65 142.585 302.393C143.423 303.136 143.842 304.084 143.842 305.238C143.842 306.147 143.494 306.795 142.798 307.183C142.103 307.57 140.921 307.764 139.253 307.764C138.629 307.764 138.004 307.744 137.38 307.704C136.763 307.657 136.151 307.59 135.542 307.503V307.669C135.542 308.902 135.906 309.878 136.633 310.597C137.36 311.317 138.348 311.676 139.597 311.676C140.182 311.676 140.723 311.601 141.221 311.451C141.719 311.293 142.174 311.06 142.585 310.751ZM159.658 300.14L159.089 301.468C158.18 303.602 157.512 305.167 157.085 306.163H162.077C161.674 305.08 161.271 304.041 160.867 303.045C160.464 302.041 160.061 301.073 159.658 300.14ZM162.717 307.787H156.303C155.67 309.163 155.228 310.242 154.975 311.024C154.73 311.807 154.607 312.479 154.607 313.04L154.595 313.229C154.414 313.253 154.279 313.265 154.192 313.265C154.113 313.273 154.038 313.277 153.967 313.277C153.453 313.277 153.062 313.174 152.793 312.969C152.524 312.755 152.39 312.447 152.39 312.044C152.39 311.641 153.157 309.898 154.69 306.815C156.224 303.732 157.563 300.867 158.71 298.219C158.583 298.037 158.445 297.863 158.295 297.697C158.152 297.524 157.998 297.35 157.832 297.176C158.125 296.812 158.389 296.547 158.627 296.381C158.872 296.215 159.117 296.132 159.362 296.132C159.702 296.132 160.03 296.354 160.346 296.796C160.67 297.231 161.045 297.974 161.472 299.025C161.844 299.934 162.354 301.203 163.002 302.831C165.199 308.356 166.729 311.53 167.59 312.352C167.29 312.684 167.013 312.921 166.76 313.063C166.507 313.206 166.242 313.277 165.966 313.277C165.167 313.277 164.262 311.917 163.251 309.198C163.021 308.598 162.844 308.127 162.717 307.787ZM173.376 312.648C173.005 312.846 172.649 312.996 172.309 313.099C171.969 313.202 171.645 313.253 171.337 313.253C170.918 313.253 170.629 313.139 170.471 312.909C170.321 312.672 170.246 312.222 170.246 311.558C170.246 311.218 170.282 310.147 170.353 308.345C170.424 306.534 170.459 304.886 170.459 303.4C170.459 301.495 170.4 300.029 170.282 299.002C170.171 297.966 169.989 297.219 169.736 296.761C170.139 296.547 170.503 296.389 170.827 296.287C171.159 296.184 171.467 296.132 171.752 296.132C172.163 296.132 172.451 296.251 172.617 296.488C172.783 296.725 172.866 297.148 172.866 297.757C172.866 297.852 172.823 298.836 172.736 300.709C172.657 302.574 172.617 304.4 172.617 306.187C172.617 307.989 172.677 309.392 172.795 310.396C172.914 311.4 173.107 312.151 173.376 312.648Z" fill="white"/>
<path d="M63.6935 61.2895C64.6325 58.9825 65.7256 56.7262 66.9691 54.5252C68.5649 51.7108 70.2853 49.0044 72.1495 46.4252C77.2738 48.2885 82.3989 50.1556 87.5268 52.0198C89.1337 52.6028 90.7369 53.1895 92.2848 53.755C92.4176 55.3573 92.5929 56.7225 92.5929 58.0905C92.5966 58.4945 92.2045 59.0996 91.83 59.2795C86.9955 61.5866 82.1378 63.8503 77.259 66.0623C76.9039 66.2237 76.1585 66.0918 75.9058 65.8123C72.5896 62.1917 68.5944 60.571 63.6935 61.2895Z" fill="white"/>
<path d="M96.724 106.947C89.5556 110.139 82.3734 113.294 75.1903 116.452C75.11 116.489 75.0252 116.525 74.9449 116.562C72.0946 112.189 69.2221 107.823 66.5257 103.36C64.702 100.333 63.1874 97.218 62.05 94.0125C62.5675 92.4572 63.0841 90.9011 63.6016 89.3495C63.7925 88.7813 64.0204 88.2269 64.2178 87.7066C69.9185 87.4419 71.2948 86.9502 75.3407 83.7226C83.044 88.7038 90.7815 93.7118 98.1141 98.4513C98.0375 101.155 98.0265 103.499 97.8577 105.836C97.8281 106.239 97.1898 106.738 96.724 106.947Z" fill="white"/>
<path d="M93.936 48.696C87.8792 46.4914 81.7163 44.2498 75.5755 42.0157C79.7976 36.9606 84.6552 32.4738 90.2416 28.6697C91.3937 27.8847 92.568 27.155 93.7635 26.4761C94.3575 26.5536 94.9701 26.6015 95.6084 26.6191C96.2984 29.3744 97.0031 32.1953 97.7106 35.0087C98.3453 37.5261 98.9726 40.0462 99.6367 42.5553C99.8535 43.3846 99.7502 43.8652 98.9467 44.4482C97.2633 45.6584 95.7624 47.1223 93.936 48.696Z" fill="white"/>
<path d="M104.281 115.252C101.779 122.765 99.2184 130.443 96.6503 138.15C92.3914 137.975 88.9765 139.064 86.3604 141.416C85.5422 135.234 83.154 129.471 79.7354 124.02C79.1229 123.04 78.503 122.064 77.8794 121.092C85.2415 117.857 92.6082 114.632 99.9776 111.404C100.022 111.385 100.081 111.404 100.011 111.404C101.427 112.68 102.774 113.895 104.281 115.252Z" fill="white"/>
<path d="M106.75 90.1456C106.787 90.5201 106.379 91.0994 106.016 91.3273C104.534 92.2663 102.986 93.1095 101.225 94.1223C99.9154 93.2783 98.349 92.2737 96.7864 91.2609C90.9833 87.5084 85.194 83.7328 79.365 80.0208C78.4776 79.4554 78.3125 78.972 78.4988 77.9149C78.818 76.0958 78.7304 74.2066 78.8992 72.3571C78.9435 71.8618 79.1667 71.1358 79.5264 70.9633C84.6442 68.5022 89.8016 66.1214 94.9922 63.6999C97.3223 66.5097 100.143 68.2928 103.705 68.8647C104.053 68.9201 104.508 69.599 104.56 70.0316C105.338 76.7304 106.067 83.4357 106.75 90.1456Z" fill="white"/>
<path d="M132.168 125.025C130.103 129.138 130.051 133.191 132.139 137.278C126.625 141.588 114.604 146.581 107.686 147.432C106.556 144.354 104.663 141.771 101.647 139.975C104.225 132.248 106.786 124.571 109.369 116.823C113.027 117.153 116.244 116.207 119.145 114.013C123.526 117.714 127.824 121.349 132.168 125.025Z" fill="white"/>
<path d="M101.045 26.2856C100.943 25.8677 101.101 25.0975 101.394 24.925C102.964 24.0071 104.267 22.8744 105.323 21.5276C108.606 20.5147 111.981 19.7519 115.418 19.18C121.325 21.0802 126.871 23.7913 132.158 27.316C130.576 30.563 130.089 33.8571 131.16 37.3126C131.255 37.6133 130.91 38.2664 130.591 38.4499C125.866 41.1979 121.119 43.909 116.346 46.5684C116.012 46.752 115.249 46.6274 114.963 46.3553C112.226 43.7549 108.973 42.4893 105.07 42.4709C103.697 36.9934 102.341 31.645 101.045 26.2856Z" fill="white"/>
<path d="M111.823 87.6218C111.357 81.6757 110.602 75.7508 109.886 69.8259C109.761 68.7918 109.997 68.3592 110.943 67.8159C112.641 66.8399 114.127 65.4977 115.752 64.3825C116.156 64.1039 116.867 63.8466 117.238 64.0154C128.519 69.0852 139.772 74.2066 150.977 79.2985V84.7419C141.379 88.583 131.802 92.413 122.109 96.29C120.224 93.7515 117.895 91.6575 114.751 91.0293C112.645 90.6114 111.992 89.7425 111.823 87.6218Z" fill="white"/>
<path d="M150.067 45.2442C155.092 52.7022 158.438 60.7764 160.082 69.0674C157.792 70.8938 155.789 72.5626 153.691 74.1077C153.364 74.3493 152.557 74.1621 152.077 73.9462C143.573 70.1125 135.089 66.2419 126.599 62.3759C123.947 61.1721 121.299 59.9582 118.94 58.8836C118.808 56.3265 118.69 54.037 118.558 51.4846C123.537 48.6379 128.793 45.6298 134.083 42.5995C138.827 46.9683 144.106 48.0143 150.067 45.2442Z" fill="white"/>
<path d="M135.521 120.898C131.156 117.2 126.9 113.594 122.601 109.951C123.888 107.347 124.545 104.713 124.16 101.87C124.123 101.595 124.527 101.089 124.835 100.964C134.2 97.182 143.577 93.4323 152.477 89.8707C155.132 91.8484 157.491 93.5974 160.093 95.5345C158.456 103.887 155.099 111.962 150.066 119.453C144.949 117.105 140.14 117.549 135.521 120.898Z" fill="white"/>
<path d="M202.995 124.108C202.092 124.438 201.124 124.648 200.177 124.772C197.881 125.091 197.246 125.704 197.246 128.029C197.246 130.15 197.224 132.285 197.422 134.391C197.632 136.566 196.674 137.89 194.8 138.638C193.442 139.182 193.412 139.839 193.875 141.155C194.282 142.311 194.301 143.778 193.992 144.97C193.67 146.214 192.814 147.351 192.066 148.433C190.614 150.535 189.953 152.714 190.58 155.293C190.936 156.75 190.984 158.294 191.014 159.812C191.087 164.281 189.268 166.628 184.916 167.773C180.68 168.888 176.38 168.734 172.084 168.346C168.523 168.03 164.975 167.571 161.406 167.407C158.379 167.267 155.485 168.034 153.031 169.89C151.989 170.682 150.881 171.633 150.32 172.766C146.017 181.504 141.823 190.309 137.642 199.109C137.004 200.455 136.618 201.93 136.182 203.159C131.511 196.761 127.062 190.261 122.186 184.087C115.932 176.166 108.918 168.994 100.426 163.558C104.171 161.868 106.984 158.404 108.03 153.911C108.144 153.426 108.727 152.843 109.211 152.696C111.534 151.999 113.922 151.508 116.247 150.814C123.129 148.752 129.49 145.575 135.551 141.515C135.892 141.739 136.119 141.889 136.35 142.043C141.868 145.726 148.647 145.15 153.232 140.609C157.756 136.126 158.463 129.347 154.854 123.906C154.201 122.923 154.505 122.369 155.015 121.592C159.935 114.063 163.372 105.913 165.17 97.0867C165.383 96.0406 165.716 95.4576 166.978 95.2012C173.071 93.9679 177.4 88.5097 177.397 82.3395C177.393 76.1692 173.038 70.7212 166.956 69.4888C165.812 69.2536 165.404 68.7988 165.192 67.7537C163.39 58.817 159.931 50.5565 154.902 42.9592C154.392 42.188 154.3 41.6419 154.869 40.7794C158.426 35.3831 157.767 28.6741 153.332 24.191C148.9 19.7116 142.154 18.9635 136.746 22.4337C135.881 22.9881 135.308 23.0868 134.424 22.4965C131.794 20.7466 129.083 19.1913 126.291 17.8261C132.899 17.28 139.531 17.2984 146.171 18.1859C167.191 21.003 183.467 31.1721 194.102 49.7198C198.417 57.2433 199.895 65.5638 199.931 74.1989C199.957 79.0159 199.213 83.5313 196.975 87.8788C194.924 91.8592 195.36 95.9493 197.455 99.9075C199.924 104.562 202.33 109.251 204.722 113.943C205.294 115.069 205.775 116.258 206.19 117.457C207.231 120.476 206.014 123.019 202.995 124.108Z" fill="white"/>
<path d="M57.7446 63.412C56.42 65.1582 54.957 66.6442 54.0428 68.4153C53.1333 70.1837 52.7698 72.2417 52.0955 74.403C47.9648 75.2313 43.5407 76.1418 39.1019 76.9886C38.7311 77.0587 38.0521 76.8124 37.9018 76.5228C36.174 73.1549 33.4159 71.0019 29.8608 69.6662C31.6033 60.7858 34.9527 52.7152 39.9745 45.2609C43.9955 46.8014 43.9955 46.8014 49.8134 46.4269C52.4728 52.1276 55.1544 57.869 57.7446 63.412ZM48.5884 117.595C45.4373 118.122 42.7483 118.567 39.7328 119.069C34.9749 112.067 31.6513 103.981 29.846 95.0815C35.5984 92.8547 38.8408 88.7055 39.2855 82.4071C43.7861 81.5049 48.2618 80.588 52.7523 79.7403C53.089 79.6738 53.6286 80.0188 53.8925 80.3232C55.5178 82.2309 57.0952 84.1754 58.9696 86.4566C55.5879 96.5925 52.018 107.301 48.5884 117.595ZM109.638 12.1791C108.593 11.9697 108.131 11.5841 107.892 10.4366C106.634 4.33183 101.219 1.52588e-05 95.0411 1.52588e-05C88.8745 -0.00737 83.4053 4.33183 82.1729 10.4108C81.9193 11.6653 81.3473 12.014 80.2948 12.2262C71.4605 14.0092 63.3097 17.45 55.789 22.3805C54.9127 22.957 54.326 23.0963 53.3316 22.469C48.9038 19.651 44.2335 19.3982 39.6554 21.9884C35.092 24.5741 32.8726 28.6605 32.9169 33.9249C32.9427 36.9035 34.1419 39.479 35.8004 41.7944C28.3277 54.9559 28.3387 54.9596 24.6775 68.181C24.5419 68.6764 23.8261 69.2483 23.2874 69.3728C17.0766 70.7528 12.6783 76.0495 12.6562 82.2936C12.6377 88.5441 17.0065 93.9884 23.1915 95.2356C24.2809 95.4523 24.6406 95.9219 24.8353 96.8831C26.6507 105.874 30.1283 114.183 35.2092 121.817C35.7672 122.665 35.5062 123.171 35.151 124.007C34.259 126.105 33.1807 128.295 33.0082 130.511C32.594 135.823 34.9564 140.009 39.5604 142.658C44.2372 145.353 48.9583 145.064 53.5447 142.195C53.9847 141.92 54.8536 141.792 55.2318 142.037C60.94 145.783 66.9931 148.663 73.3977 150.702C75.8154 151.473 78.2839 152.122 80.804 152.653C81.2809 152.76 81.8906 153.369 82.0115 153.846C81.9598 153.56 81.2625 149.69 82.3159 147.489C79.6343 146.975 77.0183 146.303 74.4797 145.482C68.6987 143.611 63.3061 140.977 58.3866 137.709C58.7611 134.881 59.0582 132.444 59.4244 130.023C59.4834 129.624 59.7583 129.062 60.0849 128.923C66.0134 126.307 71.9448 123.695 77.8808 121.095C76.9122 119.575 75.9289 118.072 74.9455 116.564C69.1682 119.102 63.39 121.633 57.6016 124.176C56.6515 123.119 55.9873 121.989 55.0003 121.369C53.4155 120.368 53.5807 119.315 54.0982 117.797C56.7908 109.883 59.417 101.942 62.0515 94.0106C59.9493 88.0894 59.131 81.8536 60.0083 75.2276C60.654 70.3894 61.8901 65.7375 63.6944 61.2876C63.6474 61.2986 63.5957 61.306 63.5477 61.3097C63.1815 61.3724 62.5137 60.9684 62.3449 60.6133C59.7076 55.085 57.1284 49.5236 54.5308 43.9547C55.2614 43.155 55.8776 42.2713 56.6995 41.6652C57.1358 41.3534 58.0084 41.3276 58.5554 41.5222C63.0893 43.1476 67.6203 44.784 72.1505 46.4269C73.2436 44.9122 74.3847 43.4409 75.5765 42.0176C70.2761 40.0915 64.9932 38.1655 59.81 36.2837C59.2814 32.997 58.834 30.2019 58.3313 27.0508C65.3161 22.315 73.3977 18.9693 82.2901 17.2009C84.4246 22.5825 88.1449 25.7631 93.7644 26.478C97.4478 24.3767 101.318 22.7661 105.324 21.53C106.322 20.2672 107.103 18.8226 107.694 17.1935C110.339 17.7074 112.911 18.3669 115.42 19.1814C115.765 19.1233 116.109 19.0717 116.454 19.0126C119.727 18.5034 123.006 18.0957 126.293 17.8282C121.028 15.249 115.474 13.3672 109.638 12.1791Z" fill="white"/>
<path d="M115.04 166.02C115.04 161.591 111.449 158 107.02 158C102.591 158 99 161.591 99 166.02C99 170.448 102.591 174.04 107.02 174.04C111.449 174.04 115.04 170.448 115.04 166.02Z" fill="white"/>
<path d="M84.2422 190.615C84.2422 184.417 79.2176 179.393 73.0196 179.393C66.8208 179.393 61.7962 184.417 61.7962 190.615C61.7962 196.813 66.8208 201.838 73.0196 201.838C79.2176 201.838 84.2422 196.813 84.2422 190.615Z" fill="#5E87E8"/>
<path d="M77.8793 166.209C77.8793 163.525 75.7032 161.349 73.0189 161.349C70.3355 161.349 68.1594 163.525 68.1594 166.209C68.1594 168.894 70.3355 171.07 73.0189 171.07C75.7032 171.07 77.8793 168.894 77.8793 166.209Z" fill="#5E87E8"/>
<path d="M112.906 191.936C112.906 189.252 110.729 187.076 108.045 187.076C105.362 187.076 103.186 189.252 103.186 191.936C103.186 194.62 105.362 196.796 108.045 196.796C110.729 196.796 112.906 194.62 112.906 191.936Z" fill="#5E87E8"/>
<path d="M51.0087 167.591C51.0087 164.907 48.8327 162.731 46.1483 162.731C43.4649 162.731 41.2889 164.907 41.2889 167.591C41.2889 170.275 43.4649 172.451 46.1483 172.451C48.8327 172.451 51.0087 170.275 51.0087 167.591Z" fill="#5E87E8"/>
<path d="M27.2344 116.562C27.2344 113.878 25.0584 111.702 22.374 111.702C19.6906 111.702 17.5146 113.878 17.5146 116.562C17.5146 119.246 19.6906 121.422 22.374 121.422C25.0584 121.422 27.2344 119.246 27.2344 116.562Z" fill="#5E87E8"/>
<path d="M117.426 102.499C117.426 99.0667 114.643 96.2839 111.21 96.2839C107.778 96.2839 104.996 99.0667 104.996 102.499C104.996 105.932 107.778 108.715 111.21 108.715C114.643 108.715 117.426 105.932 117.426 102.499Z" fill="#5E87E8"/>
<path d="M112.35 54.9128C112.35 51.4794 109.567 48.6964 106.134 48.6964C102.701 48.6964 99.9175 51.4794 99.9175 54.9128C99.9175 58.3461 102.701 61.1292 106.134 61.1292C109.567 61.1292 112.35 58.3461 112.35 54.9128Z" fill="#5E87E8"/>
<path d="M28.5946 148.673C28.5946 143.593 24.4768 139.474 19.3968 139.474C14.316 139.474 10.1982 143.593 10.1982 148.673C10.1982 153.753 14.316 157.871 19.3968 157.871C24.4768 157.871 28.5946 153.753 28.5946 148.673Z" fill="#5E87E8"/>
<path d="M19.3964 46.6553C19.3964 41.5754 15.2786 37.4566 10.1977 37.4566C5.11782 37.4566 1 41.5754 1 46.6553C1 51.7352 5.11782 55.853 10.1977 55.853C15.2786 55.853 19.3964 51.7352 19.3964 46.6553Z" fill="#5E87E8"/>
<path d="M82.0113 153.846C81.8904 153.369 81.2816 152.76 80.8047 152.654C78.2846 152.122 75.8152 151.473 73.3974 150.702L73.7166 146.304L74.4804 145.482C77.019 146.304 79.6341 146.975 82.3157 147.489C81.2632 149.69 81.9596 153.56 82.0113 153.846Z" fill="white"/>
</svg>
