<svg width="206" height="204" viewBox="0 0 206 204" fill="none" xmlns="http://www.w3.org/2000/svg">
<path d="M62.6935 61.2895C63.6325 58.9825 64.7256 56.7262 65.9691 54.5252C67.5649 51.7108 69.2853 49.0044 71.1496 46.4252C76.2738 48.2885 81.3989 50.1556 86.5268 52.0198C88.1337 52.6028 89.7369 53.1895 91.2848 53.755C91.4176 55.3573 91.5929 56.7225 91.5929 58.0905C91.5966 58.4945 91.2046 59.0996 90.83 59.2795C85.9955 61.5866 81.1379 63.8503 76.259 66.0623C75.9039 66.2237 75.1585 66.0918 74.9058 65.8123C71.5896 62.1917 67.5945 60.571 62.6935 61.2895Z" fill="white"/>
<path d="M95.724 106.947C88.5556 110.139 81.3734 113.294 74.1903 116.452C74.11 116.489 74.0252 116.525 73.9449 116.562C71.0945 112.189 68.222 107.823 65.5257 103.36C63.702 100.333 62.1874 97.218 61.05 94.0125C61.5675 92.4572 62.0841 90.9011 62.6015 89.3495C62.7925 88.7813 63.0203 88.2269 63.2177 87.7066C68.9185 87.4419 70.2948 86.9502 74.3406 83.7226C82.044 88.7038 89.7815 93.7118 97.1141 98.4513C97.0375 101.155 97.0264 103.499 96.8576 105.836C96.8281 106.239 96.1898 106.738 95.724 106.947Z" fill="white"/>
<path d="M92.936 48.696C86.8792 46.4914 80.7163 44.2498 74.5756 42.0157C78.7976 36.9606 83.6552 32.4738 89.2416 28.6697C90.3937 27.8847 91.568 27.155 92.7635 26.4761C93.3576 26.5536 93.9701 26.6015 94.6084 26.6191C95.2984 29.3744 96.0031 32.1953 96.7107 35.0087C97.3453 37.5261 97.9726 40.0462 98.6367 42.5553C98.8535 43.3846 98.7502 43.8652 97.9467 44.4482C96.2633 45.6584 94.7625 47.1223 92.936 48.696Z" fill="white"/>
<path d="M103.281 115.252C100.779 122.765 98.2184 130.443 95.6503 138.15C91.3914 137.975 87.9765 139.064 85.3604 141.416C84.5422 135.234 82.154 129.471 78.7354 124.02C78.1229 123.04 77.503 122.064 76.8794 121.092C84.2415 117.857 91.6082 114.632 98.9776 111.404C99.0219 111.385 99.0809 111.404 99.0108 111.404C100.427 112.68 101.774 113.895 103.281 115.252Z" fill="white"/>
<path d="M105.75 90.1456C105.787 90.5201 105.379 91.0994 105.016 91.3273C103.534 92.2663 101.986 93.1095 100.225 94.1223C98.9154 93.2783 97.3491 92.2737 95.7864 91.2609C89.9833 87.5084 84.194 83.7328 78.365 80.0208C77.4777 79.4554 77.3125 78.972 77.4989 77.9149C77.818 76.0958 77.7304 74.2066 77.8992 72.3571C77.9435 71.8618 78.1667 71.1358 78.5265 70.9633C83.6442 68.5022 88.8016 66.1214 93.9923 63.6999C96.3224 66.5097 99.1432 68.2928 102.705 68.8647C103.053 68.9201 103.508 69.599 103.56 70.0316C104.338 76.7304 105.067 83.4357 105.75 90.1456Z" fill="white"/>
<path d="M131.168 125.025C129.103 129.138 129.051 133.191 131.139 137.278C125.625 141.588 113.604 146.581 106.686 147.432C105.556 144.354 103.663 141.771 100.647 139.975C103.225 132.248 105.786 124.571 108.369 116.823C112.027 117.153 115.244 116.207 118.145 114.013C122.526 117.714 126.824 121.349 131.168 125.025Z" fill="white"/>
<path d="M100.045 26.2856C99.943 25.8677 100.101 25.0975 100.394 24.925C101.964 24.0071 103.267 22.8744 104.323 21.5276C107.606 20.5147 110.981 19.7519 114.418 19.18C120.325 21.0802 125.871 23.7913 131.158 27.316C129.576 30.563 129.089 33.8571 130.16 37.3126C130.255 37.6133 129.91 38.2664 129.591 38.4499C124.866 41.1979 120.119 43.909 115.346 46.5684C115.012 46.752 114.249 46.6274 113.963 46.3553C111.226 43.7549 107.973 42.4893 104.07 42.4709C102.697 36.9934 101.341 31.645 100.045 26.2856Z" fill="white"/>
<path d="M110.823 87.6218C110.357 81.6757 109.602 75.7508 108.886 69.8259C108.761 68.7918 108.997 68.3592 109.943 67.8159C111.641 66.8399 113.126 65.4977 114.752 64.3825C115.156 64.1039 115.867 63.8466 116.238 64.0154C127.519 69.0852 138.772 74.2066 149.977 79.2985V84.7419C140.379 88.583 130.802 92.413 121.109 96.29C119.224 93.7515 116.895 91.6575 113.751 91.0293C111.645 90.6114 110.992 89.7425 110.823 87.6218Z" fill="white"/>
<path d="M149.067 45.2442C154.092 52.7022 157.438 60.7764 159.082 69.0674C156.792 70.8938 154.789 72.5626 152.691 74.1077C152.364 74.3493 151.557 74.1621 151.077 73.9462C142.573 70.1125 134.089 66.2419 125.599 62.3759C122.947 61.1721 120.299 59.9582 117.94 58.8836C117.808 56.3265 117.69 54.037 117.558 51.4846C122.537 48.6379 127.793 45.6298 133.083 42.5995C137.827 46.9683 143.106 48.0143 149.067 45.2442Z" fill="white"/>
<path d="M134.521 120.898C130.156 117.2 125.9 113.594 121.601 109.951C122.888 107.347 123.545 104.713 123.16 101.87C123.123 101.595 123.527 101.089 123.835 100.964C133.2 97.182 142.577 93.4323 151.477 89.8707C154.132 91.8484 156.491 93.5974 159.093 95.5345C157.456 103.887 154.099 111.961 149.066 119.453C143.949 117.105 139.14 117.549 134.521 120.898Z" fill="white"/>
<path d="M201.995 124.108C201.092 124.438 200.124 124.648 199.177 124.772C196.881 125.091 196.246 125.704 196.246 128.029C196.246 130.15 196.224 132.285 196.422 134.391C196.632 136.566 195.674 137.89 193.8 138.638C192.442 139.182 192.412 139.839 192.875 141.155C193.282 142.311 193.301 143.778 192.992 144.97C192.67 146.214 191.814 147.351 191.066 148.433C189.614 150.535 188.953 152.714 189.58 155.293C189.936 156.75 189.984 158.294 190.014 159.812C190.087 164.281 188.268 166.628 183.916 167.773C179.68 168.888 175.38 168.734 171.084 168.346C167.523 168.03 163.975 167.571 160.406 167.407C157.379 167.267 154.485 168.034 152.031 169.89C150.989 170.682 149.881 171.633 149.32 172.766C145.017 181.504 140.823 190.309 136.642 199.109C136.003 200.455 135.618 201.93 135.182 203.159C130.511 196.761 126.062 190.261 121.186 184.087C114.932 176.166 107.918 168.994 99.4256 163.558C103.171 161.868 105.984 158.404 107.03 153.911C107.144 153.426 107.727 152.843 108.211 152.696C110.534 151.999 112.922 151.508 115.247 150.814C122.129 148.752 128.49 145.575 134.551 141.515C134.892 141.739 135.119 141.889 135.35 142.043C140.868 145.726 147.647 145.15 152.232 140.609C156.756 136.126 157.463 129.347 153.854 123.906C153.201 122.923 153.505 122.369 154.015 121.592C158.935 114.063 162.372 105.913 164.17 97.0867C164.383 96.0406 164.716 95.4576 165.978 95.2012C172.071 93.9679 176.4 88.5097 176.397 82.3395C176.393 76.1692 172.038 70.7212 165.956 69.4888C164.812 69.2536 164.404 68.7988 164.192 67.7537C162.39 58.817 158.931 50.5565 153.902 42.9592C153.392 42.188 153.3 41.6419 153.869 40.7794C157.426 35.3831 156.767 28.6741 152.332 24.191C147.9 19.7116 141.154 18.9635 135.746 22.4337C134.881 22.9881 134.308 23.0868 133.424 22.4965C130.794 20.7466 128.083 19.1913 125.291 17.8261C131.899 17.28 138.531 17.2985 145.171 18.1858C166.191 21.003 182.467 31.1721 193.102 49.7198C197.417 57.2433 198.895 65.5638 198.931 74.1988C198.957 79.0159 198.213 83.5313 195.975 87.8788C193.924 91.8592 194.36 95.9493 196.455 99.9075C198.924 104.562 201.33 109.251 203.722 113.943C204.294 115.069 204.775 116.258 205.19 117.457C206.231 120.476 205.014 123.019 201.995 124.108Z" fill="white"/>
<path d="M56.7446 63.412C55.42 65.1582 53.957 66.6442 53.0428 68.4153C52.1333 70.1837 51.7698 72.2417 51.0955 74.403C46.9648 75.2313 42.5407 76.1418 38.1019 76.9886C37.7311 77.0587 37.0522 76.8124 36.9018 76.5228C35.174 73.1549 32.4159 71.0019 28.8608 69.6662C30.6033 60.7858 33.9527 52.7152 38.9745 45.2609C42.9955 46.8014 42.9955 46.8014 48.8134 46.4269C51.4728 52.1276 54.1544 57.869 56.7446 63.412ZM47.5884 117.595C44.4373 118.122 41.7483 118.567 38.7329 119.069C33.9749 112.067 30.6513 103.981 28.846 95.0815C34.5984 92.8547 37.8408 88.7055 38.2855 82.4071C42.7861 81.5049 47.2618 80.588 51.7523 79.7403C52.089 79.6738 52.6286 80.0188 52.8925 80.3232C54.5178 82.2309 56.0952 84.1754 57.9696 86.4566C54.5879 96.5925 51.018 107.301 47.5884 117.595ZM108.638 12.1791C107.593 11.9697 107.131 11.5841 106.892 10.4366C105.634 4.33183 100.219 1.03528e-05 94.0411 1.03528e-05C87.8745 -0.00736925 82.4053 4.33183 81.1729 10.4108C80.9193 11.6653 80.3473 12.014 79.2948 12.2262C70.4605 14.0093 62.3097 17.45 54.789 22.3805C53.9127 22.957 53.326 23.0963 52.3316 22.469C47.9039 19.651 43.2335 19.3982 38.6554 21.9885C34.092 24.5741 31.8726 28.6605 31.9169 33.9249C31.9427 36.9035 33.1419 39.479 34.8005 41.7944C27.3277 54.9559 27.3388 54.9596 23.6776 68.181C23.542 68.6764 22.8261 69.2483 22.2874 69.3728C16.0766 70.7528 11.6783 76.0495 11.6562 82.2936C11.6377 88.5441 16.0065 93.9884 22.1915 95.2356C23.2809 95.4523 23.6407 95.9219 23.8353 96.8831C25.6507 105.874 29.1283 114.183 34.2092 121.817C34.7672 122.665 34.5062 123.171 34.151 124.007C33.259 126.105 32.1807 128.295 32.0082 130.511C31.594 135.823 33.9564 140.009 38.5604 142.658C43.2372 145.353 47.9583 145.064 52.5447 142.195C52.9847 141.92 53.8537 141.792 54.2319 142.037C59.94 145.783 65.9931 148.663 72.3977 150.702C74.8154 151.473 77.2839 152.122 79.804 152.653C80.2809 152.76 80.8907 153.369 81.0115 153.846C80.9598 153.56 80.2625 149.69 81.3159 147.489C78.6343 146.975 76.0183 146.303 73.4797 145.482C67.6987 143.611 62.3061 140.977 57.3866 137.709C57.7612 134.881 58.0582 132.444 58.4244 130.023C58.4834 129.624 58.7583 129.062 59.0849 128.923C65.0135 126.307 70.9448 123.695 76.8808 121.095C75.9122 119.575 74.9289 118.072 73.9455 116.564C68.1682 119.102 62.39 121.633 56.6016 124.176C55.6515 123.119 54.9873 121.989 54.0003 121.369C52.4156 120.368 52.5807 119.315 53.0982 117.797C55.7908 109.883 58.417 101.942 61.0515 94.0106C58.9493 88.0894 58.1311 81.8536 59.0083 75.2276C59.654 70.3894 60.8901 65.7375 62.6944 61.2876C62.6474 61.2986 62.5957 61.306 62.5477 61.3097C62.1815 61.3724 61.5137 60.9684 61.3449 60.6133C58.7076 55.085 56.1284 49.5236 53.5308 43.9547C54.2614 43.155 54.8776 42.2713 55.6995 41.6652C56.1358 41.3534 57.0084 41.3276 57.5554 41.5222C62.0893 43.1476 66.6204 44.784 71.1505 46.4269C72.2436 44.9122 73.3847 43.4409 74.5765 42.0176C69.2761 40.0915 63.9932 38.1654 58.81 36.2837C58.2814 32.997 57.834 30.2019 57.3313 27.0508C64.3161 22.315 72.3977 18.9693 81.2901 17.2009C83.4246 22.5825 87.1449 25.7631 92.7644 26.478C96.4478 24.3767 100.318 22.7661 104.324 21.53C105.322 20.2672 106.103 18.8226 106.694 17.1935C109.339 17.7074 111.911 18.3669 114.42 19.1814C114.765 19.1233 115.109 19.0717 115.454 19.0126C118.727 18.5034 122.006 18.0957 125.293 17.8282C120.028 15.249 114.474 13.3672 108.638 12.1791Z" fill="white"/>
<path d="M114.04 166.02C114.04 161.591 110.449 158 106.02 158C101.591 158 98 161.591 98 166.02C98 170.448 101.591 174.04 106.02 174.04C110.449 174.04 114.04 170.448 114.04 166.02Z" fill="white"/>
<path d="M83.2422 190.615C83.2422 184.417 78.2176 179.393 72.0196 179.393C65.8208 179.393 60.7962 184.417 60.7962 190.615C60.7962 196.813 65.8208 201.838 72.0196 201.838C78.2176 201.838 83.2422 196.813 83.2422 190.615Z" fill="#5E87E8"/>
<path d="M76.8793 166.209C76.8793 163.525 74.7032 161.349 72.0189 161.349C69.3355 161.349 67.1594 163.525 67.1594 166.209C67.1594 168.894 69.3355 171.07 72.0189 171.07C74.7032 171.07 76.8793 168.894 76.8793 166.209Z" fill="#5E87E8"/>
<path d="M111.906 191.936C111.906 189.252 109.729 187.076 107.045 187.076C104.362 187.076 102.186 189.252 102.186 191.936C102.186 194.62 104.362 196.796 107.045 196.796C109.729 196.796 111.906 194.62 111.906 191.936Z" fill="#5E87E8"/>
<path d="M50.0087 167.591C50.0087 164.907 47.8327 162.731 45.1483 162.731C42.4649 162.731 40.2889 164.907 40.2889 167.591C40.2889 170.275 42.4649 172.451 45.1483 172.451C47.8327 172.451 50.0087 170.275 50.0087 167.591Z" fill="#5E87E8"/>
<path d="M26.2344 116.562C26.2344 113.878 24.0583 111.702 21.374 111.702C18.6906 111.702 16.5145 113.878 16.5145 116.562C16.5145 119.246 18.6906 121.422 21.374 121.422C24.0583 121.422 26.2344 119.246 26.2344 116.562Z" fill="#5E87E8"/>
<path d="M116.425 102.499C116.425 99.0667 113.643 96.2839 110.21 96.2839C106.778 96.2839 103.995 99.0667 103.995 102.499C103.995 105.932 106.778 108.715 110.21 108.715C113.643 108.715 116.425 105.932 116.425 102.499Z" fill="#5E87E8"/>
<path d="M111.35 54.9128C111.35 51.4794 108.567 48.6964 105.134 48.6964C101.701 48.6964 98.9175 51.4794 98.9175 54.9128C98.9175 58.3461 101.701 61.1292 105.134 61.1292C108.567 61.1292 111.35 58.3461 111.35 54.9128Z" fill="#5E87E8"/>
<path d="M27.5946 148.673C27.5946 143.593 23.4768 139.474 18.3969 139.474C13.316 139.474 9.19818 143.593 9.19818 148.673C9.19818 153.753 13.316 157.871 18.3969 157.871C23.4768 157.871 27.5946 153.753 27.5946 148.673Z" fill="#5E87E8"/>
<path d="M18.3964 46.6553C18.3964 41.5754 14.2786 37.4566 9.19775 37.4566C4.11782 37.4566 0 41.5754 0 46.6553C0 51.7352 4.11782 55.853 9.19775 55.853C14.2786 55.853 18.3964 51.7352 18.3964 46.6553Z" fill="#5E87E8"/>
<path d="M81.0112 153.846C80.8904 153.369 80.2816 152.76 79.8047 152.654C77.2845 152.122 74.8151 151.473 72.3974 150.702L72.7166 146.304L73.4804 145.482C76.0189 146.304 78.6341 146.975 81.3156 147.489C80.2631 149.69 80.9596 153.56 81.0112 153.846Z" fill="white"/>
</svg>
